<svg width="134" height="129" viewBox="0 0 134 129" xmlns="http://www.w3.org/2000/svg">
<path d="M133.223 58.628C133.08 56.9423 131.995 55.558 130.392 55.0151L117.387 50.6112L130.048 36.0857C130.888 35.1216 131.24 33.8466 131.013 32.588C130.786 31.3294 130.01 30.258 128.885 29.6486L112.551 20.7988C111.484 20.2208 110.151 20.6169 109.573 21.6839C108.994 22.7509 109.391 24.0845 110.458 24.6625L126.567 33.3907L113.075 48.8698L70.4592 25.7799L78.3668 16.7081C79.2767 17.0421 80.2594 17.2243 81.2836 17.2243C84.4638 17.2243 87.2397 15.4656 88.6937 12.8708L100.904 19.4866C101.237 19.6668 101.596 19.7523 101.949 19.7523C102.73 19.7523 103.485 19.3357 103.883 18.6013C104.461 17.5343 104.065 16.2007 102.998 15.6226L89.7662 8.45393C89.6171 3.90264 85.8709 0.245483 81.2839 0.245483C76.6028 0.245483 72.7945 4.05381 72.7945 8.73489C72.7945 10.7959 73.5333 12.6871 74.7591 14.1592L67.0001 23.0609L53.2536 7.29054C51.9558 5.80138 49.8367 5.41846 48.0991 6.35948L42.7257 9.27073C42.0961 4.2917 37.8372 0.427419 32.69 0.427419C27.1107 0.427419 22.5714 4.9667 22.5714 10.5463C22.5714 13.6313 23.961 16.3967 26.1451 18.2541L5.11448 29.6486C3.99006 30.258 3.21486 31.3291 2.98722 32.588C2.76017 33.8466 3.11173 35.1216 3.95226 36.0854L16.6127 50.6109L3.60802 55.0145C2.00518 55.5574 0.920312 56.9417 0.776756 58.6275C0.633201 60.3132 1.46817 61.8613 2.95587 62.6672L18.2275 70.9413V79.235C18.2275 80.4485 19.211 81.4323 20.4248 81.4323C21.6386 81.4323 22.6221 80.4485 22.6221 79.235V73.3223L43.9879 84.8981C44.8993 85.3921 45.9162 85.6431 46.9369 85.6431C47.6043 85.6431 48.2737 85.5356 48.9159 85.3182L64.8031 79.939V123.657L23.5584 101.309C22.981 100.997 22.6224 100.394 22.6224 99.7374V90.0822C22.6224 88.8688 21.6389 87.885 20.4251 87.885C19.2113 87.885 18.2278 88.8688 18.2278 90.0822V99.7374C18.2278 102.008 19.468 104.091 21.4649 105.173L64.0552 128.25C64.9774 128.749 65.9891 128.999 67.0007 128.999C68.0123 128.999 69.0239 128.749 69.9462 128.25L112.536 105.173C114.533 104.091 115.774 102.008 115.774 99.7374V70.941L131.045 62.6669C132.532 61.8619 133.367 60.3141 133.223 58.628ZM71.8575 41.6293C79.5492 43.7914 84.9211 50.8842 84.9211 58.8779C84.9211 61.1039 84.5212 63.2643 83.7308 65.3113L67.0001 74.3761L50.2694 65.3113C49.4793 63.2643 49.0791 61.1039 49.0791 58.8779C49.0791 50.8596 54.4715 43.7607 62.193 41.6147C63.362 41.2898 64.0464 40.0783 63.7215 38.9094C63.3969 37.7401 62.1848 37.056 61.0162 37.3807C51.4006 40.0534 44.6848 48.8932 44.6848 58.8779C44.6848 60.0821 44.7824 61.2706 44.9699 62.4402L25.0373 51.6404L67.0007 28.9041L108.964 51.6407L89.0312 62.4405C89.2187 61.2709 89.3162 60.0824 89.3162 58.8782C89.3162 48.924 82.6263 40.0915 73.0473 37.3988C71.8789 37.0701 70.6657 37.7516 70.3376 38.9193C70.0083 40.0877 70.6889 41.3009 71.8575 41.6293ZM81.2836 4.64063C83.5415 4.64063 85.3787 6.47755 85.3787 8.73548C85.3787 10.9934 83.5415 12.8306 81.2836 12.8306C79.0257 12.8306 77.1887 10.9934 77.1887 8.73548C77.1887 6.47755 79.0257 4.64063 81.2836 4.64063ZM32.69 4.82256C35.8462 4.82256 38.4144 7.39045 38.4144 10.5469C38.4144 13.7031 35.8462 16.2713 32.69 16.2713C29.5339 16.2713 26.966 13.7034 26.966 10.5469C26.966 7.39045 29.5339 4.82256 32.69 4.82256ZM31.1396 20.5469C31.6453 20.6251 32.163 20.6658 32.69 20.6658C36.7852 20.6658 40.3169 18.2192 41.9081 14.7124L50.0485 10.302L63.5404 25.7805L20.9246 48.8704L7.43246 33.3913L31.1396 20.5469ZM47.5061 81.1566C47.0362 81.316 46.5165 81.2711 46.0811 81.035L21.4813 67.7069C21.4748 67.7034 21.4681 67.6999 21.4616 67.6964L5.46135 59.0274L20.2206 54.0296L61.5265 76.4096L47.5061 81.1566ZM111.378 99.7383C111.378 100.395 111.019 100.997 110.442 101.31L69.1974 123.658V79.9399L85.0846 85.3191C85.7268 85.5365 86.3962 85.644 87.0639 85.644C88.084 85.644 89.1012 85.3927 90.0126 84.899L111.378 73.3232V99.7383H111.378ZM87.9188 81.035C87.4834 81.2711 86.9637 81.316 86.4938 81.1566L72.4737 76.4096L113.78 54.0296L128.539 59.0274L87.9188 81.035ZM128.983 59.1777C128.982 59.1777 128.982 59.1774 128.982 59.1774L128.983 59.1777Z"/>
</svg>
