<svg width="10" height="6" viewBox="0 0 10 6" xmlns="http://www.w3.org/2000/svg">
<path d="M9.16664 0.641619C9.01051 0.48641 8.7993 0.399292 8.57914 0.399292C8.35899 0.399292 8.14778 0.48641 7.99164 0.641619L4.99998 3.59162L2.04998 0.641619C1.89384 0.48641 1.68263 0.399292 1.46248 0.399292C1.24232 0.399292 1.03111 0.48641 0.874978 0.641619C0.796871 0.719088 0.734875 0.811256 0.692568 0.912805C0.650261 1.01435 0.628479 1.12328 0.628479 1.23329C0.628479 1.3433 0.650261 1.45222 0.692568 1.55377C0.734875 1.65532 0.796871 1.74748 0.874978 1.82495L4.40831 5.35829C4.48578 5.43639 4.57795 5.49839 4.6795 5.5407C4.78105 5.583 4.88997 5.60478 4.99998 5.60478C5.10999 5.60478 5.21891 5.583 5.32046 5.5407C5.42201 5.49839 5.51417 5.43639 5.59164 5.35829L9.16664 1.82495C9.24475 1.74748 9.30675 1.65532 9.34905 1.55377C9.39136 1.45222 9.41314 1.3433 9.41314 1.23329C9.41314 1.12328 9.39136 1.01435 9.34905 0.912805C9.30675 0.811256 9.24475 0.719088 9.16664 0.641619Z"/>
</svg>
