<svg width="18" height="20" viewBox="0 0 18 20" xmlns="http://www.w3.org/2000/svg">
<path d="M16.08 10.4202L9.9 16.6102C9.08982 17.3302 8.03514 17.7135 6.95172 17.6816C5.8683 17.6497 4.838 17.2051 4.07157 16.4386C3.30514 15.6722 2.86051 14.6419 2.82862 13.5585C2.79672 12.4751 3.17998 11.4204 3.9 10.6102L11.9 2.61021C12.3776 2.15651 13.0112 1.90354 13.67 1.90354C14.3288 1.90354 14.9624 2.15651 15.44 2.61021C15.9053 3.0818 16.1663 3.71768 16.1663 4.38021C16.1663 5.04274 15.9053 5.67862 15.44 6.15021L8.54 13.0402C8.47171 13.1138 8.38961 13.1731 8.29838 13.2149C8.20714 13.2567 8.10857 13.2802 8.00828 13.2839C7.908 13.2876 7.80796 13.2715 7.71388 13.2366C7.61981 13.2016 7.53354 13.1485 7.46 13.0802C7.38646 13.0119 7.32709 12.9298 7.28528 12.8386C7.24347 12.7474 7.22004 12.6488 7.21632 12.5485C7.21261 12.4482 7.22868 12.3482 7.26363 12.2541C7.29858 12.16 7.35171 12.0738 7.42 12.0002L12.55 6.88021C12.7383 6.69191 12.8441 6.43651 12.8441 6.17021C12.8441 5.90391 12.7383 5.64852 12.55 5.46021C12.3617 5.27191 12.1063 5.16612 11.84 5.16612C11.5737 5.16612 11.3183 5.27191 11.13 5.46021L6 10.6002C5.7433 10.8549 5.53957 11.1579 5.40053 11.4917C5.2615 11.8256 5.18992 12.1836 5.18992 12.5452C5.18992 12.9068 5.2615 13.2649 5.40053 13.5987C5.53957 13.9325 5.7433 14.2355 6 14.4902C6.52437 14.9897 7.22081 15.2683 7.945 15.2683C8.66919 15.2683 9.36563 14.9897 9.89 14.4902L16.78 7.59021C17.5749 6.73716 18.0076 5.60888 17.987 4.44308C17.9665 3.27727 17.4942 2.16496 16.6697 1.34048C15.8453 0.516003 14.7329 0.0437313 13.5671 0.023162C12.4013 0.00259272 11.2731 0.435332 10.42 1.23021L2.42 9.23021C1.3412 10.425 0.765028 11.9901 0.811533 13.5992C0.858038 15.2083 1.52363 16.7374 2.66964 17.868C3.81564 18.9985 5.35368 19.6433 6.96328 19.6679C8.57289 19.6925 10.1299 19.0951 11.31 18.0002L17.5 11.8202C17.5932 11.727 17.6672 11.6163 17.7177 11.4945C17.7681 11.3726 17.7941 11.2421 17.7941 11.1102C17.7941 10.9784 17.7681 10.8478 17.7177 10.726C17.6672 10.6041 17.5932 10.4935 17.5 10.4002C17.4068 10.307 17.2961 10.233 17.1742 10.1826C17.0524 10.1321 16.9219 10.1061 16.79 10.1061C16.6581 10.1061 16.5276 10.1321 16.4058 10.1826C16.2839 10.233 16.1732 10.307 16.08 10.4002V10.4202Z" />
</svg>
