<svg width="12" height="14" viewBox="0 0 12 14" xmlns="http://www.w3.org/2000/svg">
    <path d="M12 4.96016C11.9931 4.89892 11.9796 4.83858 11.96 4.78016V4.72016C11.9279 4.65162 11.8852 4.58861 11.8333 4.5335L7.83333 0.533496C7.77822 0.48164 7.71521 0.438883 7.64667 0.406829C7.62677 0.404003 7.60657 0.404003 7.58667 0.406829C7.51894 0.36799 7.44415 0.343059 7.36667 0.333496H4.66667C4.13623 0.333496 3.62753 0.54421 3.25245 0.919283C2.87738 1.29436 2.66667 1.80306 2.66667 2.3335V3.00016H2C1.46957 3.00016 0.960859 3.21088 0.585787 3.58595C0.210714 3.96102 0 4.46973 0 5.00016V11.6668C0 12.1973 0.210714 12.706 0.585787 13.081C0.960859 13.4561 1.46957 13.6668 2 13.6668H7.33333C7.86377 13.6668 8.37247 13.4561 8.74755 13.081C9.12262 12.706 9.33333 12.1973 9.33333 11.6668V11.0002H10C10.5304 11.0002 11.0391 10.7894 11.4142 10.4144C11.7893 10.0393 12 9.5306 12 9.00016V5.00016C12 5.00016 12 5.00016 12 4.96016ZM8 2.60683L9.72667 4.3335H8.66667C8.48986 4.3335 8.32029 4.26326 8.19526 4.13823C8.07024 4.01321 8 3.84364 8 3.66683V2.60683ZM8 11.6668C8 11.8436 7.92976 12.0132 7.80474 12.1382C7.67971 12.2633 7.51014 12.3335 7.33333 12.3335H2C1.82319 12.3335 1.65362 12.2633 1.5286 12.1382C1.40357 12.0132 1.33333 11.8436 1.33333 11.6668V5.00016C1.33333 4.82335 1.40357 4.65378 1.5286 4.52876C1.65362 4.40373 1.82319 4.3335 2 4.3335H2.66667V9.00016C2.66667 9.5306 2.87738 10.0393 3.25245 10.4144C3.62753 10.7894 4.13623 11.0002 4.66667 11.0002H8V11.6668ZM10.6667 9.00016C10.6667 9.17697 10.5964 9.34654 10.4714 9.47157C10.3464 9.59659 10.1768 9.66683 10 9.66683H4.66667C4.48986 9.66683 4.32029 9.59659 4.19526 9.47157C4.07024 9.34654 4 9.17697 4 9.00016V2.3335C4 2.15669 4.07024 1.98712 4.19526 1.86209C4.32029 1.73707 4.48986 1.66683 4.66667 1.66683H6.66667V3.66683C6.66667 4.19726 6.87738 4.70597 7.25245 5.08104C7.62753 5.45612 8.13623 5.66683 8.66667 5.66683H10.6667V9.00016Z" />
</svg>
