<svg width="18" height="20" viewBox="0 0 18 20" xmlns="http://www.w3.org/2000/svg">
<path d="M16.3333 6.33346L10.8333 1.51179C10.3291 1.06084 9.67643 0.811523 9 0.811523C8.32356 0.811523 7.67085 1.06084 7.16666 1.51179L1.66666 6.33346C1.3755 6.59386 1.14315 6.9133 0.985095 7.27052C0.827035 7.62773 0.74689 8.01452 0.749995 8.40513V16.4168C0.749995 17.1461 1.03973 17.8456 1.55545 18.3613C2.07118 18.8771 2.77065 19.1668 3.5 19.1668H14.5C15.2293 19.1668 15.9288 18.8771 16.4445 18.3613C16.9603 17.8456 17.25 17.1461 17.25 16.4168V8.39596C17.2518 8.00689 17.171 7.62187 17.013 7.26634C16.855 6.9108 16.6233 6.59284 16.3333 6.33346ZM10.8333 17.3335H7.16666V12.7501C7.16666 12.507 7.26324 12.2739 7.43515 12.1019C7.60706 11.93 7.84021 11.8335 8.08333 11.8335H9.91666C10.1598 11.8335 10.3929 11.93 10.5648 12.1019C10.7368 12.2739 10.8333 12.507 10.8333 12.7501V17.3335ZM15.4167 16.4168C15.4167 16.6599 15.3201 16.8931 15.1482 17.065C14.9763 17.2369 14.7431 17.3335 14.5 17.3335H12.6667V12.7501C12.6667 12.0208 12.3769 11.3213 11.8612 10.8056C11.3455 10.2899 10.646 10.0001 9.91666 10.0001H8.08333C7.35398 10.0001 6.65451 10.2899 6.13879 10.8056C5.62306 11.3213 5.33333 12.0208 5.33333 12.7501V17.3335H3.5C3.25688 17.3335 3.02372 17.2369 2.85181 17.065C2.67991 16.8931 2.58333 16.6599 2.58333 16.4168V8.39596C2.58349 8.26581 2.61137 8.13718 2.66511 8.01864C2.71885 7.9001 2.79722 7.79436 2.895 7.70846L8.395 2.89596C8.56228 2.749 8.77733 2.66795 9 2.66795C9.22266 2.66795 9.43771 2.749 9.605 2.89596L15.105 7.70846C15.2028 7.79436 15.2811 7.9001 15.3349 8.01864C15.3886 8.13718 15.4165 8.26581 15.4167 8.39596V16.4168Z"/>
</svg>
