<svg width="22" height="22" viewBox="0 0 22 22"  xmlns="http://www.w3.org/2000/svg">
<path d="M21.4071 9.56896C21.4064 9.56845 21.4059 9.56778 21.4054 9.56728L12.4311 0.593339C12.0486 0.210648 11.54 0 10.999 0C10.4581 0 9.94949 0.210648 9.5668 0.593339L0.597222 9.56275C0.594201 9.56577 0.591012 9.56896 0.588158 9.57198C-0.197365 10.362 -0.196023 11.6439 0.592019 12.4319C0.952051 12.7921 1.42739 13.0006 1.9358 13.0226C1.95662 13.0246 1.97743 13.0256 1.99841 13.0256H2.35592V19.6297C2.35592 20.9367 3.4194 22 4.72643 22H8.23745C8.59345 22 8.88198 21.7113 8.88198 21.3555V16.1778C8.88198 15.5814 9.36723 15.0963 9.96359 15.0963H12.0345C12.6308 15.0963 13.1159 15.5814 13.1159 16.1778V21.3555C13.1159 21.7113 13.4045 22 13.7605 22H17.2715C18.5787 22 19.642 20.9367 19.642 19.6297V13.0256H19.9736C20.5145 13.0256 21.023 12.815 21.4059 12.4321C22.1948 11.6429 22.1951 10.3587 21.4071 9.56896ZM20.4943 11.5207C20.3552 11.6598 20.1702 11.7365 19.9736 11.7365H18.9974C18.6414 11.7365 18.3529 12.0251 18.3529 12.3811V19.6297C18.3529 20.2259 17.8678 20.711 17.2715 20.711H14.405V16.1778C14.405 14.8707 13.3417 13.8073 12.0345 13.8073H9.96359C8.6564 13.8073 7.59292 14.8707 7.59292 16.1778V20.711H4.72643C4.13023 20.711 3.64499 20.2259 3.64499 19.6297V12.3811C3.64499 12.0251 3.35646 11.7365 3.00046 11.7365H2.04104C2.03097 11.7359 2.02107 11.7354 2.01083 11.7352C1.81881 11.7318 1.63871 11.6556 1.50376 11.5205C1.21675 11.2335 1.21675 10.7664 1.50376 10.4792C1.50393 10.4792 1.50393 10.479 1.5041 10.4789L1.5046 10.4784L10.4785 1.50475C10.6175 1.3656 10.8023 1.28907 10.999 1.28907C11.1956 1.28907 11.3804 1.3656 11.5195 1.50475L20.4915 10.4765C20.4928 10.4778 20.4943 10.4792 20.4957 10.4805C20.7812 10.7681 20.7807 11.2342 20.4943 11.5207Z"/>
</svg>
