<svg width="18" height="18" viewBox="0 0 18 18" xmlns="http://www.w3.org/2000/svg">
    <path d="M16.5 10.667C16.2789 10.667 16.067 10.7548 15.9107 10.9111C15.7544 11.0674 15.6666 11.2793 15.6666 11.5003V14.8337C15.6666 15.0547 15.5788 15.2666 15.4226 15.4229C15.2663 15.5792 15.0543 15.667 14.8333 15.667H3.16663C2.94561 15.667 2.73365 15.5792 2.57737 15.4229C2.42109 15.2666 2.33329 15.0547 2.33329 14.8337V11.5003C2.33329 11.2793 2.2455 11.0674 2.08922 10.9111C1.93293 10.7548 1.72097 10.667 1.49996 10.667C1.27895 10.667 1.06698 10.7548 0.910704 10.9111C0.754423 11.0674 0.666626 11.2793 0.666626 11.5003V14.8337C0.666626 15.4967 0.930018 16.1326 1.39886 16.6014C1.8677 17.0703 2.50359 17.3337 3.16663 17.3337H14.8333C15.4963 17.3337 16.1322 17.0703 16.6011 16.6014C17.0699 16.1326 17.3333 15.4967 17.3333 14.8337V11.5003C17.3333 11.2793 17.2455 11.0674 17.0892 10.9111C16.9329 10.7548 16.721 10.667 16.5 10.667ZM8.40829 12.092C8.48755 12.1679 8.581 12.2273 8.68329 12.267C8.78304 12.3111 8.8909 12.3339 8.99996 12.3339C9.10902 12.3339 9.21688 12.3111 9.31663 12.267C9.41892 12.2273 9.51237 12.1679 9.59163 12.092L12.925 8.75866C13.0819 8.60174 13.17 8.38891 13.17 8.16699C13.17 7.94507 13.0819 7.73224 12.925 7.57533C12.768 7.41841 12.5552 7.33025 12.3333 7.33025C12.1114 7.33025 11.8985 7.41841 11.7416 7.57533L9.83329 9.49199V1.50033C9.83329 1.27931 9.7455 1.06735 9.58922 0.91107C9.43294 0.75479 9.22097 0.666992 8.99996 0.666992C8.77895 0.666992 8.56699 0.75479 8.41071 0.91107C8.25443 1.06735 8.16663 1.27931 8.16663 1.50033V9.49199L6.25829 7.57533C6.18059 7.49763 6.08835 7.43599 5.98684 7.39394C5.88532 7.35189 5.77651 7.33025 5.66663 7.33025C5.55674 7.33025 5.44794 7.35189 5.34642 7.39394C5.2449 7.43599 5.15266 7.49763 5.07496 7.57533C4.99726 7.65302 4.93563 7.74527 4.89358 7.84678C4.85153 7.9483 4.82988 8.05711 4.82988 8.16699C4.82988 8.27687 4.85153 8.38568 4.89358 8.4872C4.93563 8.58872 4.99726 8.68096 5.07496 8.75866L8.40829 12.092Z" />
</svg>
