<svg width="18" height="20" viewBox="0 0 18 20" xmlns="http://www.w3.org/2000/svg">
<path d="M16.9842 14.3177L14.7658 12.0993C14.6806 12.0134 14.5792 11.9452 14.4675 11.8987C14.3558 11.8521 14.236 11.8282 14.115 11.8282C13.994 11.8282 13.8742 11.8521 13.7625 11.8987C13.6508 11.9452 13.5494 12.0134 13.4642 12.0993L10.1825 15.381C10.0975 15.4667 10.0303 15.5682 9.98471 15.6799C9.93909 15.7916 9.91597 15.9112 9.91667 16.0318V18.2502C9.91667 18.4933 10.0132 18.7264 10.1852 18.8983C10.3571 19.0703 10.5902 19.1668 10.8333 19.1668H13.0517C13.1723 19.1675 13.2919 19.1444 13.4036 19.0988C13.5153 19.0532 13.6168 18.986 13.7025 18.901L16.9842 15.6193C17.0701 15.5341 17.1383 15.4327 17.1848 15.321C17.2314 15.2093 17.2553 15.0895 17.2553 14.9685C17.2553 14.8475 17.2314 14.7277 17.1848 14.616C17.1383 14.5043 17.0701 14.4029 16.9842 14.3177ZM12.6667 17.3335H11.75V16.4168L14.115 14.0518L15.0317 14.9685L12.6667 17.3335ZM7.16667 17.3335H3.5C3.25688 17.3335 3.02373 17.2369 2.85182 17.065C2.67991 16.8931 2.58333 16.6599 2.58333 16.4168V3.5835C2.58333 3.34038 2.67991 3.10722 2.85182 2.93532C3.02373 2.76341 3.25688 2.66683 3.5 2.66683H8.08333V5.41683C8.08333 6.14617 8.37306 6.84565 8.88879 7.36137C9.40451 7.8771 10.104 8.16683 10.8333 8.16683H13.5833V9.0835C13.5833 9.32661 13.6799 9.55977 13.8518 9.73168C14.0237 9.90359 14.2569 10.0002 14.5 10.0002C14.7431 10.0002 14.9763 9.90359 15.1482 9.73168C15.3201 9.55977 15.4167 9.32661 15.4167 9.0835V7.25016C15.4167 7.25016 15.4167 7.25016 15.4167 7.19516C15.4071 7.11095 15.3887 7.02799 15.3617 6.94766V6.86516C15.3176 6.77091 15.2588 6.68427 15.1875 6.6085L9.6875 1.1085C9.61172 1.03719 9.52508 0.978404 9.43083 0.934329C9.40347 0.930443 9.3757 0.930443 9.34833 0.934329L9.055 0.833496H3.5C2.77065 0.833496 2.07118 1.12323 1.55546 1.63895C1.03973 2.15468 0.75 2.85415 0.75 3.5835V16.4168C0.75 17.1462 1.03973 17.8456 1.55546 18.3614C2.07118 18.8771 2.77065 19.1668 3.5 19.1668H7.16667C7.40978 19.1668 7.64294 19.0703 7.81485 18.8983C7.98676 18.7264 8.08333 18.4933 8.08333 18.2502C8.08333 18.007 7.98676 17.7739 7.81485 17.602C7.64294 17.4301 7.40978 17.3335 7.16667 17.3335ZM9.91667 3.95933L12.2908 6.3335H10.8333C10.5902 6.3335 10.3571 6.23692 10.1852 6.06501C10.0132 5.8931 9.91667 5.65994 9.91667 5.41683V3.95933ZM5.33333 11.8335H10.8333C11.0764 11.8335 11.3096 11.7369 11.4815 11.565C11.6534 11.3931 11.75 11.1599 11.75 10.9168C11.75 10.6737 11.6534 10.4406 11.4815 10.2686C11.3096 10.0967 11.0764 10.0002 10.8333 10.0002H5.33333C5.09022 10.0002 4.85706 10.0967 4.68515 10.2686C4.51324 10.4406 4.41667 10.6737 4.41667 10.9168C4.41667 11.1599 4.51324 11.3931 4.68515 11.565C4.85706 11.7369 5.09022 11.8335 5.33333 11.8335ZM5.33333 8.16683H6.25C6.49311 8.16683 6.72627 8.07025 6.89818 7.89834C7.07009 7.72644 7.16667 7.49328 7.16667 7.25016C7.16667 7.00705 7.07009 6.77389 6.89818 6.60198C6.72627 6.43007 6.49311 6.3335 6.25 6.3335H5.33333C5.09022 6.3335 4.85706 6.43007 4.68515 6.60198C4.51324 6.77389 4.41667 7.00705 4.41667 7.25016C4.41667 7.49328 4.51324 7.72644 4.68515 7.89834C4.85706 8.07025 5.09022 8.16683 5.33333 8.16683ZM7.16667 13.6668H5.33333C5.09022 13.6668 4.85706 13.7634 4.68515 13.9353C4.51324 14.1072 4.41667 14.3404 4.41667 14.5835C4.41667 14.8266 4.51324 15.0598 4.68515 15.2317C4.85706 15.4036 5.09022 15.5002 5.33333 15.5002H7.16667C7.40978 15.5002 7.64294 15.4036 7.81485 15.2317C7.98676 15.0598 8.08333 14.8266 8.08333 14.5835C8.08333 14.3404 7.98676 14.1072 7.81485 13.9353C7.64294 13.7634 7.40978 13.6668 7.16667 13.6668Z"/>
</svg>
