<svg width="16" height="20" viewBox="0 0 16 20"xmlns="http://www.w3.org/2000/svg">
<path d="M15.5 15.25V17.5C15.5 18.0967 15.2629 18.669 14.841 19.091C14.419 19.5129 13.8467 19.75 13.25 19.75H2.75C2.15326 19.75 1.58097 19.5129 1.15901 19.091C0.737053 18.669 0.5 18.0967 0.5 17.5V2.5C0.5 1.90326 0.737053 1.33097 1.15901 0.90901C1.58097 0.487053 2.15326 0.25 2.75 0.25H5C5.19891 0.25 5.38968 0.329018 5.53033 0.46967C5.67098 0.610322 5.75 0.801088 5.75 1C5.75 1.19891 5.67098 1.38968 5.53033 1.53033C5.38968 1.67098 5.19891 1.75 5 1.75H2.75C2.55109 1.75 2.36032 1.82902 2.21967 1.96967C2.07902 2.11032 2 2.30109 2 2.5V17.5C2 17.6989 2.07902 17.8897 2.21967 18.0303C2.36032 18.171 2.55109 18.25 2.75 18.25H13.25C13.4489 18.25 13.6397 18.171 13.7803 18.0303C13.921 17.8897 14 17.6989 14 17.5V15.25C14 15.0511 14.079 14.8603 14.2197 14.7197C14.3603 14.579 14.5511 14.5 14.75 14.5C14.9489 14.5 15.1397 14.579 15.2803 14.7197C15.421 14.8603 15.5 15.0511 15.5 15.25ZM15.5 7V11.5C15.5 11.6989 15.421 11.8897 15.2803 12.0303C15.1397 12.171 14.9489 12.25 14.75 12.25C14.5511 12.25 14.3603 12.171 14.2197 12.0303C14.079 11.8897 14 11.6989 14 11.5V7.75H10.25C9.65326 7.75 9.08097 7.51295 8.65901 7.09099C8.23705 6.66903 8 6.09674 8 5.5V1C8.00118 0.901992 8.02157 0.805167 8.06 0.715C8.13611 0.531738 8.28174 0.386106 8.465 0.31C8.6476 0.234986 8.8524 0.234986 9.035 0.31C9.12706 0.345696 9.21117 0.399219 9.2825 0.4675L15.2825 6.4675C15.3508 6.53883 15.4043 6.62294 15.44 6.715C15.4784 6.80517 15.4988 6.90199 15.5 7ZM10.25 6.25H12.9425L9.5 2.8075V5.5C9.5 5.69891 9.57902 5.88968 9.71967 6.03033C9.86032 6.17098 10.0511 6.25 10.25 6.25Z"/>
</svg>
