<svg width="150" height="150" viewBox="0 0 150 150" xmlns="http://www.w3.org/2000/svg">
<path d="M141.223 79.6281C141.08 77.9423 139.995 76.558 138.392 76.0151L125.387 71.6112L138.048 57.0857C138.888 56.1216 139.24 54.8466 139.013 53.588C138.786 52.3294 138.01 51.258 136.885 50.6486L120.551 41.7988C119.484 41.2208 118.151 41.6169 117.573 42.6839C116.994 43.7509 117.391 45.0845 118.458 45.6625L134.567 54.3907L121.075 69.8698L78.4592 46.7799L86.3668 37.7081C87.2767 38.0421 88.2594 38.2243 89.2836 38.2243C92.4638 38.2243 95.2397 36.4656 96.6937 33.8708L108.904 40.4866C109.237 40.6668 109.596 40.7523 109.949 40.7523C110.73 40.7523 111.485 40.3357 111.883 39.6013C112.461 38.5343 112.065 37.2007 110.998 36.6226L97.7662 29.4539C97.6171 24.9027 93.8709 21.2455 89.2839 21.2455C84.6028 21.2455 80.7945 25.0538 80.7945 29.7349C80.7945 31.796 81.5333 33.6871 82.7591 35.1593L75.0001 44.0609L61.2536 28.2906C59.9558 26.8014 57.8367 26.4185 56.0991 27.3595L50.7257 30.2707C50.0961 25.2917 45.8372 21.4274 40.69 21.4274C35.1107 21.4274 30.5714 25.9667 30.5714 31.5463C30.5714 34.6313 31.961 37.3967 34.1451 39.2541L13.1145 50.6486C11.9901 51.258 11.2149 52.3291 10.9872 53.588C10.7602 54.8466 11.1117 56.1216 11.9523 57.0855L24.6127 71.6109L11.608 76.0146C10.0052 76.5574 8.92031 77.9417 8.77676 79.6275C8.6332 81.3132 9.46817 82.8613 10.9559 83.6672L26.2275 91.9413V100.235C26.2275 101.449 27.211 102.432 28.4248 102.432C29.6386 102.432 30.6221 101.449 30.6221 100.235V94.3223L51.9879 105.898C52.8993 106.392 53.9162 106.643 54.9369 106.643C55.6043 106.643 56.2737 106.536 56.9159 106.318L72.8031 100.939V144.657L31.5584 122.309C30.981 121.997 30.6224 121.394 30.6224 120.737V111.082C30.6224 109.869 29.6389 108.885 28.4251 108.885C27.2113 108.885 26.2278 109.869 26.2278 111.082V120.737C26.2278 123.008 27.468 125.091 29.4649 126.173L72.0552 149.25C72.9774 149.749 73.9891 149.999 75.0007 149.999C76.0123 149.999 77.0239 149.749 77.9462 149.25L120.536 126.173C122.533 125.091 123.774 123.008 123.774 120.737V91.941L139.045 83.667C140.532 82.8619 141.367 81.3141 141.223 79.6281ZM79.8575 62.6293C87.5492 64.7915 92.9211 71.8843 92.9211 79.878C92.9211 82.104 92.5212 84.2643 91.7308 86.3113L75.0001 95.3761L58.2694 86.3113C57.4793 84.2643 57.0791 82.104 57.0791 79.878C57.0791 71.8597 62.4715 64.7607 70.193 62.6147C71.362 62.2898 72.0464 61.0784 71.7215 59.9094C71.3969 58.7402 70.1848 58.0561 69.0162 58.3807C59.4006 61.0534 52.6848 69.8932 52.6848 79.878C52.6848 81.0821 52.7824 82.2707 52.9699 83.4402L33.0373 72.6404L75.0007 49.9042L116.964 72.6407L97.0312 83.4405C97.2187 82.2709 97.3162 81.0824 97.3162 79.8783C97.3162 69.924 90.6263 61.0915 81.0473 58.3988C79.8789 58.0701 78.6657 58.7516 78.3376 59.9194C78.0083 61.0877 78.6889 62.3009 79.8575 62.6293ZM89.2836 25.6406C91.5415 25.6406 93.3787 27.4776 93.3787 29.7355C93.3787 31.9934 91.5415 33.8306 89.2836 33.8306C87.0257 33.8306 85.1887 31.9934 85.1887 29.7355C85.1887 27.4776 87.0257 25.6406 89.2836 25.6406ZM40.69 25.8226C43.8462 25.8226 46.4144 28.3905 46.4144 31.5469C46.4144 34.7031 43.8462 37.2713 40.69 37.2713C37.5339 37.2713 34.966 34.7034 34.966 31.5469C34.966 28.3905 37.5339 25.8226 40.69 25.8226ZM39.1396 41.5469C39.6453 41.6251 40.163 41.6658 40.69 41.6658C44.7852 41.6658 48.3169 39.2192 49.9081 35.7124L58.0485 31.302L71.5404 46.7805L28.9246 69.8704L15.4325 54.3913L39.1396 41.5469ZM55.5061 102.157C55.0362 102.316 54.5165 102.271 54.0811 102.035L29.4813 88.7069C29.4748 88.7034 29.4681 88.6999 29.4616 88.6964L13.4614 80.0274L28.2206 75.0296L69.5265 97.4096L55.5061 102.157ZM119.378 120.738C119.378 121.395 119.019 121.997 118.442 122.31L77.1974 144.658V100.94L93.0846 106.319C93.7268 106.537 94.3962 106.644 95.0639 106.644C96.084 106.644 97.1012 106.393 98.0126 105.899L119.378 94.3232V120.738H119.378ZM95.9188 102.035C95.4834 102.271 94.9637 102.316 94.4938 102.157L80.4737 97.4096L121.78 75.0296L136.539 80.0274L95.9188 102.035ZM136.983 80.1777C136.982 80.1777 136.982 80.1774 136.982 80.1774L136.983 80.1777Z" />
<path d="M91.4325 124.42L86.392 127.151C85.325 127.729 84.9289 129.063 85.5069 130.13C85.9048 130.864 86.6607 131.281 87.4411 131.281C87.7944 131.281 88.1533 131.195 88.4858 131.015L93.5264 128.284C94.5933 127.706 94.9894 126.372 94.4114 125.305C93.8334 124.238 92.5004 123.842 91.4325 124.42Z" fill="#3679E0"/>
<path d="M49.1291 18.5039C49.5583 18.9328 50.1208 19.1476 50.683 19.1476C51.2452 19.1476 51.8077 18.9331 52.2369 18.5039L54.0495 16.6913L55.8621 18.5039C56.2913 18.9328 56.8538 19.1476 57.416 19.1476C57.9782 19.1476 58.5407 18.9331 58.9699 18.5039C59.828 17.6458 59.828 16.2545 58.9699 15.3967L57.157 13.5838L58.9699 11.7709C59.828 10.9128 59.828 9.52149 58.9699 8.66367C58.1115 7.80557 56.7205 7.80557 55.8624 8.66367L54.0498 10.4763L52.2372 8.66367C51.3788 7.80557 49.9878 7.80557 49.1297 8.66367C48.2716 9.52178 48.2716 10.9131 49.1297 11.7709L50.9426 13.5838L49.1297 15.3967C48.271 16.2545 48.271 17.6458 49.1291 18.5039Z" fill="#3679E0"/>
<path d="M114.181 32.8976C114.61 33.3265 115.172 33.5412 115.734 33.5412C116.297 33.5412 116.859 33.3268 117.288 32.8976L119.101 31.085L120.914 32.8976C121.343 33.3265 121.905 33.5412 122.467 33.5412C123.03 33.5412 123.592 33.3268 124.021 32.8976C124.879 32.0395 124.879 30.6482 124.021 29.7904L122.208 27.9775L124.021 26.1646C124.879 25.3065 124.879 23.9152 124.021 23.0574C123.163 22.1992 121.772 22.1992 120.914 23.0574L119.101 24.8699L117.289 23.0574C116.43 22.1992 115.039 22.1992 114.181 23.0574C113.323 23.9155 113.323 25.3068 114.181 26.1646L115.994 27.9775L114.181 29.7904C113.322 30.6482 113.322 32.0395 114.181 32.8976Z" fill="#3679E0"/>
<path d="M102.05 19.1458C107.328 19.1458 111.623 14.8515 111.623 9.57305C111.623 4.29434 107.328 0 102.05 0C96.7714 0 92.4767 4.29434 92.4767 9.57305C92.4767 14.8515 96.7711 19.1458 102.05 19.1458ZM102.05 4.39453C104.905 4.39453 107.228 6.71748 107.228 9.57305C107.228 12.4283 104.905 14.7513 102.05 14.7513C99.1945 14.7513 96.8713 12.4283 96.8713 9.57305C96.8713 6.71748 99.1945 4.39453 102.05 4.39453Z" fill="#3679E0"/>
<path d="M74.752 82.1826C72.635 82.1826 70.6369 82.8845 69.1229 84.1613C68.1953 84.9435 68.0773 86.3299 68.8598 87.2574C69.6417 88.1852 71.028 88.303 71.9559 87.5208C72.6678 86.9205 73.6861 86.5768 74.7523 86.5768H74.7669C75.8383 86.5801 76.8605 86.9302 77.5721 87.5375C77.986 87.8908 78.4932 88.0634 78.9974 88.0634C79.6182 88.0634 80.2352 87.8017 80.6696 87.2926C81.4574 86.3697 81.3479 84.9825 80.425 84.1947C78.9121 82.9033 76.907 82.1885 74.7795 82.182C74.7704 82.1826 74.761 82.1826 74.752 82.1826Z" fill="#3679E0"/>
<path d="M65.4557 75.6754H65.4352C64.2206 75.6576 63.2418 76.6443 63.233 77.8575C63.2248 79.0709 64.2118 80.0615 65.4253 80.07H65.4408C66.6469 80.07 67.6293 79.0961 67.6378 77.8879C67.6463 76.6745 66.6695 75.6839 65.4557 75.6754Z" fill="#3679E0"/>
<path d="M84.1349 80.0249C84.1426 80.0263 84.1505 80.0272 84.1581 80.0287C84.2214 80.041 84.2855 80.0512 84.3506 80.058C84.3717 80.06 84.3931 80.06 84.4141 80.0615C84.4631 80.065 84.512 80.0697 84.5621 80.07H84.5776C84.6532 80.07 84.7279 80.0662 84.8017 80.0586C85.9112 79.9475 86.7772 79.0112 86.7772 77.8724C86.7772 76.7486 85.9332 75.8237 84.8448 75.6927C84.8348 75.6916 84.8252 75.6892 84.8152 75.6883C84.7651 75.6831 84.7139 75.6816 84.6626 75.6795C84.6392 75.6787 84.6163 75.6757 84.5926 75.6754H84.5811C84.5808 75.6754 84.5803 75.6754 84.58 75.6754H84.5721H84.5592C84.5583 75.6754 84.5574 75.6754 84.5565 75.6754C83.3504 75.6754 82.3783 76.6493 82.3698 77.8575C82.3625 78.9248 83.1254 79.8189 84.1349 80.0249Z" fill="#3679E0"/>
</svg>
