<svg width="30" height="30" viewBox="0 0 30 30" xmlns="http://www.w3.org/2000/svg">
<path d="M14.5238 12.2351C14.6338 12.3886 14.8111 12.4796 15 12.4796C15.1889 12.4796 15.3661 12.3885 15.4762 12.2351L21.0177 4.50539C21.1458 4.32686 21.1631 4.09172 21.0628 3.89631C20.9625 3.7009 20.7613 3.57803 20.5415 3.57803H17.7709V0.585937C17.7709 0.262324 17.5085 0 17.185 0H12.8149C12.4914 0 12.229 0.262324 12.229 0.585937V3.57797H9.45841C9.23874 3.57797 9.03753 3.70084 8.93716 3.89625C8.83678 4.09166 8.85419 4.3268 8.98221 4.50533L14.5238 12.2351ZM12.8149 4.74984C13.1385 4.74984 13.4009 4.48752 13.4009 4.16391V1.17187H16.5991V4.16391C16.5991 4.48752 16.8614 4.74984 17.185 4.74984H19.4005L15 10.888L10.5994 4.74984H12.8149Z"/>
<path d="M27.1158 19.3821L25.3514 14.4137C25.2684 14.1801 25.0473 14.0239 24.7992 14.0239H5.2008C4.95283 14.0239 4.73164 14.1801 4.64861 14.4137L2.88424 19.3821C2.82055 19.5615 2.84797 19.7606 2.95777 19.9161C3.06758 20.0716 3.24605 20.1641 3.43643 20.1641H4.53928V29.4142C4.53928 29.7378 4.80166 30.0001 5.12522 30.0001H24.7232C25.0468 30.0001 25.3092 29.7378 25.3092 29.4142V20.1641H26.5637C26.754 20.1641 26.9325 20.0717 27.0423 19.9162C27.1521 19.7607 27.1795 19.5615 27.1158 19.3821ZM5.61447 15.1958H19.4847L18.1365 18.9923H4.26629L5.61447 15.1958ZM5.71115 20.1641H18.5502C18.7982 20.1641 19.0194 20.008 19.1024 19.7743L19.7287 18.0108V28.8282H17.8759V24.2774C17.8759 23.9538 17.6135 23.6915 17.29 23.6915H8.20684C7.88328 23.6915 7.6209 23.9538 7.6209 24.2774V28.8282H5.71115V20.1641ZM8.79277 28.8282V24.8634H16.704V28.8282H8.79277ZM24.1372 28.8282H20.9005V18.1261L21.4858 19.7743C21.5688 20.008 21.79 20.1641 22.038 20.1641H24.1372V28.8282ZM22.4517 18.9923L21.1035 15.1958H24.3856L25.7338 18.9923H22.4517Z"/>
<path d="M14.2703 26.2598H11.0389C10.7154 26.2598 10.453 26.5221 10.453 26.8457C10.453 27.1693 10.7154 27.4316 11.0389 27.4316H14.2703C14.5939 27.4316 14.8563 27.1693 14.8563 26.8457C14.8563 26.5221 14.5939 26.2598 14.2703 26.2598Z"/>
</svg>
