<svg width="20" height="20" viewBox="0 0 20 20" xmlns="http://www.w3.org/2000/svg">
<path d="M18.25 11.8335C18.0069 11.8335 17.7737 11.9301 17.6018 12.102C17.4299 12.2739 17.3333 12.507 17.3333 12.7502V16.4168C17.3333 16.6599 17.2367 16.8931 17.0648 17.065C16.8929 17.2369 16.6598 17.3335 16.4166 17.3335H3.58331C3.3402 17.3335 3.10704 17.2369 2.93513 17.065C2.76322 16.8931 2.66665 16.6599 2.66665 16.4168V12.7502C2.66665 12.507 2.57007 12.2739 2.39816 12.102C2.22625 11.9301 1.99309 11.8335 1.74998 11.8335C1.50686 11.8335 1.27371 11.9301 1.1018 12.102C0.92989 12.2739 0.833313 12.507 0.833313 12.7502V16.4168C0.833313 17.1462 1.12304 17.8456 1.63877 18.3614C2.15449 18.8771 2.85397 19.1668 3.58331 19.1668H16.4166C17.146 19.1668 17.8455 18.8771 18.3612 18.3614C18.8769 17.8456 19.1666 17.1462 19.1666 16.4168V12.7502C19.1666 12.507 19.0701 12.2739 18.8982 12.102C18.7263 11.9301 18.4931 11.8335 18.25 11.8335ZM9.34915 13.401C9.43633 13.4845 9.53912 13.5499 9.65165 13.5935C9.76137 13.642 9.88002 13.667 9.99998 13.667C10.1199 13.667 10.2386 13.642 10.3483 13.5935C10.4608 13.5499 10.5636 13.4845 10.6508 13.401L14.3175 9.73433C14.4901 9.56172 14.5871 9.32761 14.5871 9.0835C14.5871 8.83939 14.4901 8.60527 14.3175 8.43266C14.1449 8.26005 13.9108 8.16308 13.6666 8.16308C13.4225 8.16308 13.1884 8.26005 13.0158 8.43266L10.9166 10.541V1.75016C10.9166 1.50705 10.8201 1.27389 10.6482 1.10198C10.4763 0.930073 10.2431 0.833496 9.99998 0.833496C9.75686 0.833496 9.52371 0.930073 9.3518 1.10198C9.17989 1.27389 9.08331 1.50705 9.08331 1.75016V10.541L6.98415 8.43266C6.89868 8.34719 6.79721 8.2794 6.68554 8.23314C6.57387 8.18689 6.45418 8.16308 6.33331 8.16308C6.21244 8.16308 6.09275 8.18689 5.98108 8.23314C5.86941 8.2794 5.76795 8.34719 5.68248 8.43266C5.59701 8.51813 5.52921 8.6196 5.48296 8.73127C5.4367 8.84294 5.4129 8.96263 5.4129 9.0835C5.4129 9.20437 5.4367 9.32405 5.48296 9.43573C5.52921 9.5474 5.59701 9.64886 5.68248 9.73433L9.34915 13.401Z"/>
</svg>
