<svg width="133.335px" height="45.473px" viewBox="0 0 13333.5 4547.3">
    <path fill="#24336B" d="M11826.36 1931.57c85.23,470.83 -226.27,970.96 -807.92,1413.47 -5.54,4.25 0.39,12.61 6.21,8.8 463.75,-303.1 954.82,-642.86 1287.49,-1093.92 119.09,-161.54 219.57,-355.4 237.2,-558.38 32.95,-378.99 -220.2,-706.84 -537.63,-884.93 -211.31,-118.63 -443.51,-193.07 -679.05,-246.38 -410.25,-93.41 -832.59,-123.04 -1252.54,-117.51 -213.43,2.79 -426.72,14.29 -639.23,34.51 -205.18,19.43 -410.32,45.19 -613.27,80.61 -201.44,35.2 -401.85,74.04 -600.57,122.27 -21.55,5.29 -43.11,10.55 -64.66,15.98 -6.42,1.66 -4.77,11.32 1.94,10.69 1926.48,-182.32 3498.31,310.48 3662.03,1214.79zm-1723.38 -1708.43c-6.67,0.28 -7.97,-9.35 -1.45,-10.73 148.28,-29.95 297.4,-56.44 446.76,-80.43 237.74,-38.31 476.61,-70.1 716.28,-93.17 196.64,-19 397.15,-34.34 597.95,-38.81l228.38 0c143.87,3.47 287.18,13.94 428.63,34.12 92.86,13.3 185.04,31.68 275.31,57.18 225.14,63.64 455.93,184.89 518.2,426.83 40.71,158.22 15.98,326.78 -33.23,479.99 -95.68,297.83 -282.23,563.55 -479.85,802.15 -12.24,14.89 -24.7,29.6 -37.08,44.28 -3.99,4.62 -11.43,0.34 -9.24,-5.42 81.95,-215.8 117.75,-460.77 75.67,-689.04 -62.16,-336.72 -330.84,-583.81 -632.64,-716.98 -366.32,-161.64 -769.48,-201.15 -1165.5,-217.21 -309.24,-12.66 -619.12,-6.63 -928.19,7.24zm-6987.51 3522.72c0,441.88 -359.54,801.4 -801.47,801.4l-2314 0.04 0 -733.64 553.98 0 0 179.57 1760.02 0c136.67,0 247.43,-110.71 247.43,-247.37 0,-136.67 -110.76,-247.4 -247.43,-247.4l-2314 0 0 -554.04 1859.96 -0.04c136.61,0 247.39,-110.73 247.39,-247.39 0,-136.67 -110.78,-247.39 -247.39,-247.39l-1305.98 0 0 179.59 -553.98 0 0 -733.65 1859.96 0c441.92,0 801.42,359.55 801.42,801.45 0,106.55 -21.07,208.19 -58.98,301.27 299.81,116.1 513.07,407.32 513.07,747.6zm3916.29 -1850.32l3316.92 0 0 553.98 -3316.92 0 0 -553.98zm1381.44 869.81l554 0 0 1781.95 -554 0 0 -1781.95zm-2847.08 595.1l419.8 554 -1514.65 0 -479.46 632.81 -695.06 0 2129.53 -2810.54 2129.46 2810.54 -695.08 0 -1434.38 -1893.19 -535.24 706.38 675.08 0z"/>
</svg>