<svg width="14" height="18" viewBox="0 0 14 18" xmlns="http://www.w3.org/2000/svg">
<path d="M0.333252 8.99996C0.333252 9.22097 0.421049 9.43293 0.57733 9.58922C0.73361 9.7455 0.945571 9.83329 1.16659 9.83329H7.49158L5.57492 11.7416C5.49681 11.8191 5.43482 11.9113 5.39251 12.0128C5.3502 12.1144 5.32842 12.2233 5.32842 12.3333C5.32842 12.4433 5.3502 12.5522 5.39251 12.6538C5.43482 12.7553 5.49681 12.8475 5.57492 12.925C5.65239 13.0031 5.74455 13.0651 5.8461 13.1074C5.94765 13.1497 6.05657 13.1715 6.16658 13.1715C6.27659 13.1715 6.38552 13.1497 6.48707 13.1074C6.58861 13.0651 6.68078 13.0031 6.75825 12.925L10.0916 9.59163C10.1675 9.51237 10.2269 9.41892 10.2666 9.31663C10.3499 9.11374 10.3499 8.88618 10.2666 8.68329C10.2269 8.581 10.1675 8.48755 10.0916 8.40829L6.75825 5.07496C6.68055 4.99726 6.58831 4.93563 6.48679 4.89358C6.38527 4.85153 6.27647 4.82988 6.16658 4.82988C6.0567 4.82988 5.9479 4.85153 5.84638 4.89358C5.74486 4.93563 5.65262 4.99726 5.57492 5.07496C5.49722 5.15266 5.43559 5.2449 5.39353 5.34642C5.35148 5.44794 5.32984 5.55674 5.32984 5.66663C5.32984 5.77651 5.35148 5.88532 5.39353 5.98683C5.43559 6.08835 5.49722 6.18059 5.57492 6.25829L7.49158 8.16663H1.16659C0.945571 8.16663 0.73361 8.25442 0.57733 8.4107C0.421049 8.56698 0.333252 8.77895 0.333252 8.99996ZM11.1666 0.666626H2.83325C2.17021 0.666626 1.53433 0.930018 1.06549 1.39886C0.596644 1.8677 0.333252 2.50358 0.333252 3.16663V5.66663C0.333252 5.88764 0.421049 6.0996 0.57733 6.25588C0.73361 6.41216 0.945571 6.49996 1.16659 6.49996C1.3876 6.49996 1.59956 6.41216 1.75584 6.25588C1.91212 6.0996 1.99992 5.88764 1.99992 5.66663V3.16663C1.99992 2.94561 2.08772 2.73365 2.244 2.57737C2.40028 2.42109 2.61224 2.33329 2.83325 2.33329H11.1666C11.3876 2.33329 11.5996 2.42109 11.7558 2.57737C11.9121 2.73365 11.9999 2.94561 11.9999 3.16663V14.8333C11.9999 15.0543 11.9121 15.2663 11.7558 15.4225C11.5996 15.5788 11.3876 15.6666 11.1666 15.6666H2.83325C2.61224 15.6666 2.40028 15.5788 2.244 15.4225C2.08772 15.2663 1.99992 15.0543 1.99992 14.8333V12.3333C1.99992 12.1123 1.91212 11.9003 1.75584 11.744C1.59956 11.5878 1.3876 11.5 1.16659 11.5C0.945571 11.5 0.73361 11.5878 0.57733 11.744C0.421049 11.9003 0.333252 12.1123 0.333252 12.3333V14.8333C0.333252 15.4963 0.596644 16.1322 1.06549 16.6011C1.53433 17.0699 2.17021 17.3333 2.83325 17.3333H11.1666C11.8296 17.3333 12.4655 17.0699 12.9344 16.6011C13.4032 16.1322 13.6666 15.4963 13.6666 14.8333V3.16663C13.6666 2.50358 13.4032 1.8677 12.9344 1.39886C12.4655 0.930018 11.8296 0.666626 11.1666 0.666626Z"/>
</svg>
