<svg width="14" height="14" viewBox="0 0 14 14" fill="none" xmlns="http://www.w3.org/2000/svg">
<path d="M7.00001 0.333374C5.68147 0.333374 4.39254 0.724367 3.29621 1.45691C2.19988 2.18945 1.3454 3.23064 0.840816 4.44882C0.336232 5.66699 0.20421 7.00744 0.461445 8.30064C0.718679 9.59385 1.35362 10.7817 2.28597 11.7141C3.21832 12.6464 4.4062 13.2814 5.69941 13.5386C6.99262 13.7958 8.33306 13.6638 9.55124 13.1592C10.7694 12.6547 11.8106 11.8002 12.5431 10.7038C13.2757 9.60751 13.6667 8.31858 13.6667 7.00004C13.6647 5.23253 12.9617 3.53798 11.7119 2.28817C10.4621 1.03835 8.76752 0.33534 7.00001 0.333374ZM7.00001 12.3334C5.94518 12.3334 4.91403 12.0206 4.03697 11.4345C3.15991 10.8485 2.47632 10.0156 2.07266 9.04102C1.66899 8.06648 1.56337 6.99412 1.76916 5.95956C1.97495 4.92499 2.4829 3.97468 3.22878 3.2288C3.97466 2.48292 4.92497 1.97497 5.95953 1.76919C6.9941 1.5634 8.06645 1.66902 9.04099 2.07268C10.0155 2.47635 10.8485 3.15994 11.4345 4.037C12.0206 4.91406 12.3333 5.94521 12.3333 7.00004C12.3317 8.41403 11.7693 9.76964 10.7695 10.7695C9.76962 11.7693 8.41401 12.3318 7.00001 12.3334ZM7.00001 6.66671C6.8232 6.66671 6.65363 6.73695 6.52861 6.86197C6.40358 6.98699 6.33335 7.15656 6.33335 7.33337V9.33337C6.33335 9.51018 6.40358 9.67975 6.52861 9.80478C6.65363 9.9298 6.8232 10 7.00001 10C7.17682 10 7.34639 9.9298 7.47142 9.80478C7.59644 9.67975 7.66668 9.51018 7.66668 9.33337V7.33337C7.66668 7.15656 7.59644 6.98699 7.47142 6.86197C7.34639 6.73695 7.17682 6.66671 7.00001 6.66671ZM7.00001 4.00004C6.8352 4.00004 6.67408 4.04891 6.53704 4.14048C6.4 4.23205 6.29319 4.3622 6.23011 4.51447C6.16704 4.66674 6.15054 4.8343 6.18269 4.99595C6.21485 5.1576 6.29421 5.30609 6.41076 5.42263C6.5273 5.53917 6.67579 5.61854 6.83744 5.65069C6.99909 5.68285 7.16664 5.66635 7.31892 5.60327C7.47119 5.5402 7.60134 5.43339 7.6929 5.29635C7.78447 5.15931 7.83335 4.99819 7.83335 4.83337C7.83335 4.61236 7.74555 4.4004 7.58927 4.24412C7.43299 4.08784 7.22103 4.00004 7.00001 4.00004Z" fill="#3679E0"/>
</svg>
