<svg width="22" height="22" viewBox="0 0 22 22" fill="none" xmlns="http://www.w3.org/2000/svg">
<path d="M18.1273 0.818237H3.87278C3.06267 0.818237 2.28573 1.14005 1.71289 1.71289C1.14005 2.28573 0.818237 3.06267 0.818237 3.87278V18.1273C0.818237 18.9374 1.14005 19.7144 1.71289 20.2872C2.28573 20.8601 3.06267 21.1819 3.87278 21.1819H18.1273C18.9374 21.1819 19.7144 20.8601 20.2872 20.2872C20.8601 19.7144 21.1819 18.9374 21.1819 18.1273V3.87278C21.1819 3.06267 20.8601 2.28573 20.2872 1.71289C19.7144 1.14005 18.9374 0.818237 18.1273 0.818237ZM8.96369 2.8546H13.0364V6.04151L11.5601 5.02333C11.3938 4.91385 11.1991 4.8555 11.0001 4.8555C10.801 4.8555 10.6063 4.91385 10.4401 5.02333L8.96369 6.04151V2.8546ZM19.1455 18.1273C19.1455 18.3974 19.0382 18.6563 18.8473 18.8473C18.6563 19.0382 18.3974 19.1455 18.1273 19.1455H3.87278C3.60274 19.1455 3.34377 19.0382 3.15282 18.8473C2.96187 18.6563 2.8546 18.3974 2.8546 18.1273V3.87278C2.8546 3.60274 2.96187 3.34377 3.15282 3.15282C3.34377 2.96187 3.60274 2.8546 3.87278 2.8546H6.92733V7.94551C6.92782 8.1297 6.97827 8.31031 7.0733 8.4681C7.16833 8.62589 7.30438 8.75494 7.46697 8.84151C7.62618 8.92326 7.80413 8.9616 7.98289 8.95266C8.16164 8.94373 8.33488 8.88783 8.48515 8.7906L11.0001 7.13097L13.4946 8.7906C13.6477 8.89145 13.8253 8.94908 14.0084 8.95739C14.1916 8.96571 14.3736 8.92441 14.5353 8.83785C14.6969 8.7513 14.8322 8.6227 14.9268 8.46563C15.0214 8.30857 15.0718 8.12887 15.0728 7.94551V2.8546H18.1273C18.3974 2.8546 18.6563 2.96187 18.8473 3.15282C19.0382 3.34377 19.1455 3.60274 19.1455 3.87278V18.1273Z" fill="#3679E0"/>
</svg>
