<svg width="20" height="20" viewBox="0 0 20 20" xmlns="http://www.w3.org/2000/svg">
<path d="M6.98415 6.06749L9.08331 3.95915V12.75C9.08331 12.9931 9.17989 13.2263 9.3518 13.3982C9.52371 13.5701 9.75686 13.6667 9.99998 13.6667C10.2431 13.6667 10.4763 13.5701 10.6482 13.3982C10.8201 13.2263 10.9166 12.9931 10.9166 12.75V3.95915L13.0158 6.06749C13.101 6.1534 13.2024 6.2216 13.3141 6.26814C13.4258 6.31467 13.5456 6.33863 13.6666 6.33863C13.7877 6.33863 13.9075 6.31467 14.0192 6.26814C14.1309 6.2216 14.2323 6.1534 14.3175 6.06749C14.4034 5.98227 14.4716 5.88089 14.5181 5.76918C14.5647 5.65748 14.5886 5.53766 14.5886 5.41665C14.5886 5.29564 14.5647 5.17583 14.5181 5.06412C14.4716 4.95242 14.4034 4.85104 14.3175 4.76582L10.6508 1.09915C10.5636 1.0157 10.4608 0.950281 10.3483 0.906653C10.1251 0.81497 9.87482 0.81497 9.65165 0.906653C9.53912 0.950281 9.43633 1.0157 9.34915 1.09915L5.68248 4.76582C5.59701 4.85129 5.52921 4.95275 5.48296 5.06442C5.4367 5.17609 5.4129 5.29578 5.4129 5.41665C5.4129 5.53752 5.4367 5.65721 5.48296 5.76888C5.52921 5.88055 5.59701 5.98202 5.68248 6.06749C5.76795 6.15296 5.86941 6.22075 5.98108 6.26701C6.09275 6.31326 6.21244 6.33707 6.33331 6.33707C6.45418 6.33707 6.57387 6.31326 6.68554 6.26701C6.79721 6.22075 6.89868 6.15296 6.98415 6.06749ZM18.25 11.8333C18.0069 11.8333 17.7737 11.9299 17.6018 12.1018C17.4299 12.2737 17.3333 12.5069 17.3333 12.75V16.4167C17.3333 16.6598 17.2367 16.8929 17.0648 17.0648C16.8929 17.2367 16.6598 17.3333 16.4166 17.3333H3.58331C3.3402 17.3333 3.10704 17.2367 2.93513 17.0648C2.76322 16.8929 2.66665 16.6598 2.66665 16.4167V12.75C2.66665 12.5069 2.57007 12.2737 2.39816 12.1018C2.22625 11.9299 1.99309 11.8333 1.74998 11.8333C1.50686 11.8333 1.27371 11.9299 1.1018 12.1018C0.92989 12.2737 0.833313 12.5069 0.833313 12.75V16.4167C0.833313 17.146 1.12304 17.8455 1.63877 18.3612C2.15449 18.8769 2.85397 19.1667 3.58331 19.1667H16.4166C17.146 19.1667 17.8455 18.8769 18.3612 18.3612C18.8769 17.8455 19.1666 17.146 19.1666 16.4167V12.75C19.1666 12.5069 19.0701 12.2737 18.8982 12.1018C18.7263 11.9299 18.4931 11.8333 18.25 11.8333Z"/>
</svg>
