<svg width="30" height="30" viewBox="0 0 30 30" xmlns="http://www.w3.org/2000/svg">
<g clip-path="url(#clip0)">
<path d="M9.38267 8.90162H12.1533V11.8937C12.1533 12.2173 12.4156 12.4796 12.7392 12.4796H17.1093C17.4328 12.4796 17.6952 12.2173 17.6952 11.8937V8.90162H20.4658C20.6855 8.90162 20.8867 8.77875 20.987 8.58334C21.0874 8.38793 21.07 8.15279 20.942 7.97426L15.4004 0.244512C15.2904 0.0910547 15.1131 0 14.9242 0C14.7354 0 14.5581 0.0910547 14.448 0.244512L8.90648 7.97426C8.77851 8.15279 8.76111 8.38793 8.86148 8.58334C8.96173 8.77875 9.163 8.90162 9.38267 8.90162ZM14.9242 1.59158L19.3248 7.72975H17.1093C16.7857 7.72975 16.5233 7.99207 16.5233 8.31568V11.3077H13.3251V8.31568C13.3251 7.99207 13.0628 7.72975 12.7392 7.72975H10.5237L14.9242 1.59158Z"/>
<path d="M27.1158 19.3821L25.3514 14.4137C25.2684 14.1801 25.0473 14.0239 24.7993 14.0239H5.20076C4.95273 14.0239 4.7316 14.1801 4.64863 14.4137L2.88426 19.3821C2.82056 19.5615 2.84793 19.7606 2.95773 19.9161C3.06754 20.0716 3.24601 20.1641 3.43638 20.1641H4.53929V29.4142C4.53929 29.7378 4.80162 30.0001 5.12523 30.0001H24.7232C25.0468 30.0001 25.3091 29.7378 25.3091 29.4142V20.1641H26.5636C26.754 20.1641 26.9325 20.0717 27.0423 19.9162C27.1521 19.7607 27.1795 19.5615 27.1158 19.3821ZM5.61449 15.1958H19.4847L18.1365 18.9923H4.26631L5.61449 15.1958ZM5.71117 20.1641H18.5502C18.7982 20.1641 19.0194 20.008 19.1024 19.7743L19.7287 18.0108V28.8282H17.8759V24.2774C17.8759 23.9538 17.6136 23.6915 17.29 23.6915H8.20691C7.8833 23.6915 7.62097 23.9538 7.62097 24.2774V28.8282H5.71117V20.1641ZM8.79285 28.8282V24.8634H16.7041V28.8282H8.79285ZM24.1373 28.8282H20.9005V18.1261L21.4858 19.7743C21.5689 20.008 21.79 20.1641 22.038 20.1641H24.1373V28.8282ZM22.4517 18.9923L21.1035 15.1958H24.3855L25.7338 18.9923H22.4517Z"/>
<path d="M14.3641 26.2598H11.1327C10.8091 26.2598 10.5468 26.5221 10.5468 26.8457C10.5468 27.1693 10.8091 27.4316 11.1327 27.4316H14.3641C14.6877 27.4316 14.95 27.1693 14.95 26.8457C14.95 26.5221 14.6877 26.2598 14.3641 26.2598Z"/>
</g>
<defs>
<clipPath id="clip0">
<rect width="30" height="30" fill="white"/>
</clipPath>
</defs>
</svg>
