<svg width="14" height="14" viewBox="0 0 14 14" xmlns="http://www.w3.org/2000/svg">
<path d="M13.6666 3.82667C13.6671 3.73893 13.6503 3.65196 13.6171 3.57073C13.5839 3.48951 13.5351 3.41563 13.4733 3.35334L10.6466 0.526673C10.5843 0.464885 10.5104 0.416002 10.4292 0.382825C10.348 0.349649 10.261 0.332832 10.1733 0.333339C10.0855 0.332832 9.99855 0.349649 9.91733 0.382825C9.8361 0.416002 9.76222 0.464885 9.69993 0.526673L7.81326 2.41334L0.526596 9.70001C0.464809 9.7623 0.415925 9.83618 0.382749 9.9174C0.349573 9.99863 0.332756 10.0856 0.333263 10.1733V13C0.333263 13.1768 0.403501 13.3464 0.528525 13.4714C0.653549 13.5964 0.823119 13.6667 0.99993 13.6667H3.8266C3.91988 13.6717 4.01319 13.6572 4.10048 13.6239C4.18776 13.5905 4.26707 13.5393 4.33326 13.4733L11.5799 6.18667L13.4733 4.33334C13.5341 4.26873 13.5837 4.19436 13.6199 4.11334C13.6264 4.0602 13.6264 4.00648 13.6199 3.95334C13.623 3.92231 13.623 3.89104 13.6199 3.86001L13.6666 3.82667ZM3.55326 12.3333H1.6666V10.4467L8.2866 3.82667L10.1733 5.71334L3.55326 12.3333ZM11.1133 4.77334L9.2266 2.88667L10.1733 1.94667L12.0533 3.82667L11.1133 4.77334Z"/>
</svg>
