<svg width="20" height="20" viewBox="0 0 20 20" xmlns="http://www.w3.org/2000/svg">
<path d="M19.2857 7.85715C19.0963 7.85715 18.9146 7.9324 18.7806 8.06636C18.6467 8.20031 18.5714 8.38199 18.5714 8.57143V17.8571C18.5714 18.0466 18.4962 18.2283 18.3622 18.3622C18.2283 18.4962 18.0466 18.5714 17.8571 18.5714H2.14286C1.95342 18.5714 1.77174 18.4962 1.63778 18.3622C1.50383 18.2283 1.42857 18.0466 1.42857 17.8571V6.76429C1.42696 6.64765 1.45393 6.53238 1.50714 6.42857L3.81429 1.82143C3.87419 1.70255 3.96612 1.60277 4.07971 1.53336C4.1933 1.46394 4.32403 1.42765 4.45714 1.42858H7.05L6.51429 5.71429H3.57143C3.38199 5.71429 3.20031 5.78954 3.06635 5.9235C2.9324 6.05745 2.85714 6.23913 2.85714 6.42857C2.85714 6.61801 2.9324 6.7997 3.06635 6.93365C3.20031 7.06761 3.38199 7.14286 3.57143 7.14286H6.42857V13.5714C6.42897 13.7033 6.46589 13.8326 6.53523 13.9448C6.60457 14.057 6.70363 14.1478 6.82143 14.2071C6.93559 14.2604 7.06178 14.2824 7.18722 14.2711C7.31267 14.2599 7.43289 14.2156 7.53571 14.1429L10 12.3214L12.4286 14.1429C12.5522 14.2356 12.7026 14.2857 12.8571 14.2857C12.9693 14.2877 13.08 14.2606 13.1786 14.2071C13.2964 14.1478 13.3954 14.057 13.4648 13.9448C13.5341 13.8326 13.571 13.7033 13.5714 13.5714V7.14286H19.2857C19.4224 7.14133 19.5557 7.10062 19.6699 7.02557C19.7842 6.95052 19.8745 6.84428 19.9301 6.71945C19.9858 6.59462 20.0044 6.45645 19.9839 6.32133C19.9634 6.18621 19.9045 6.05981 19.8143 5.95715C19.8067 5.90548 19.7923 5.85504 19.7714 5.80715L17.4643 1.18572C17.2861 0.828828 17.0119 0.528754 16.6724 0.319273C16.3329 0.109792 15.9417 -0.000779787 15.5429 4.13959e-06H4.45714C4.05825 -0.000779787 3.66706 0.109792 3.3276 0.319273C2.98814 0.528754 2.71389 0.828828 2.53571 1.18572L0.228571 5.80715C0.0791631 6.10414 0.00090942 6.43183 0 6.76429V17.8571C0 18.4255 0.225765 18.9705 0.627628 19.3724C1.02949 19.7742 1.57454 20 2.14286 20H17.8571C18.4255 20 18.9705 19.7742 19.3724 19.3724C19.7742 18.9705 20 18.4255 20 17.8571V8.57143C20 8.38199 19.9247 8.20031 19.7908 8.06636C19.6568 7.9324 19.4752 7.85715 19.2857 7.85715ZM15.5429 1.42858C15.676 1.42765 15.8067 1.46394 15.9203 1.53336C16.0339 1.60277 16.1258 1.70255 16.1857 1.82143L18.1286 5.71429H13.4143L12.3429 1.42858H15.5429ZM8.48571 1.42858H10.8714L11.9429 5.71429H7.95L8.48571 1.42858ZM7.85714 7.14286H12.1429V12.1429L10.4286 10.8571C10.3049 10.7644 10.1546 10.7143 10 10.7143C9.84545 10.7143 9.69507 10.7644 9.57143 10.8571L7.85714 12.1429V7.14286ZM16.4286 15.7143C16.618 15.7143 16.7997 15.7895 16.9336 15.9235C17.0676 16.0575 17.1429 16.2391 17.1429 16.4286C17.1429 16.618 17.0676 16.7997 16.9336 16.9336C16.7997 17.0676 16.618 17.1429 16.4286 17.1429H13.5714C13.382 17.1429 13.2003 17.0676 13.0664 16.9336C12.9324 16.7997 12.8571 16.618 12.8571 16.4286C12.8571 16.2391 12.9324 16.0575 13.0664 15.9235C13.2003 15.7895 13.382 15.7143 13.5714 15.7143H16.4286Z"/>
</svg>
