<svg width="18" height="18" viewBox="0 0 18 18" xmlns="http://www.w3.org/2000/svg">
    <path d="M7.24444 14.4832C8.8533 14.4833 10.4161 13.9465 11.6854 12.9579L16.474 17.7464C16.8317 18.0919 17.4017 18.082 17.7472 17.7243C18.0842 17.3753 18.0842 16.8221 17.7472 16.4732L12.9586 11.6846C15.4118 8.52674 14.8406 3.97807 11.6827 1.52489C8.52475 -0.928292 3.97612 -0.357031 1.52294 2.80087C-0.930245 5.95878 -0.358984 10.5075 2.79892 12.9606C4.07027 13.9483 5.63452 14.484 7.24444 14.4832ZM3.39686 3.39604C5.52184 1.27103 8.96711 1.27099 11.0921 3.39597C13.2171 5.52095 13.2172 8.96622 11.0922 11.0912C8.96723 13.2163 5.52196 13.2163 3.39694 11.0913C3.3969 11.0913 3.3969 11.0913 3.39686 11.0912C1.27188 8.98174 1.25936 5.54903 3.36886 3.42405C3.37818 3.41469 3.3875 3.40536 3.39686 3.39604Z" />
</svg>
