<svg width="100" height="96" viewBox="0 0 100 96" fill="none" xmlns="http://www.w3.org/2000/svg">
    <path d="M100 47.9986C100 52.9451 91.1378 56.43 89.6886 60.8936C88.1855 65.5199 93.2549 73.5387 90.4517 77.3881C87.6223 81.2775 78.411 78.9201 74.5216 81.7509C70.6708 84.5527 70.0828 94.0554 65.458 95.5527C60.9944 97.0019 54.9521 89.7063 49.9998 89.7063C45.0476 89.7063 39.0107 97.0019 34.5417 95.5527C29.9154 94.0496 29.3274 84.5472 25.4767 81.7509C21.5887 78.9215 12.3774 81.2789 9.54655 77.3895C6.74481 73.5387 11.8128 65.5199 10.3111 60.895C8.8622 56.4315 0 52.9465 0 48C0 43.0535 8.8622 39.5686 10.3114 35.105C11.8131 30.4799 6.7451 22.461 9.54683 18.6105C12.3777 14.7211 21.589 17.0785 25.4784 14.2491C29.3277 11.4474 29.9157 1.94325 34.542 0.447316C39.0056 -1.00188 45.0478 6.29371 50.0001 6.29371C54.9521 6.29371 60.9892 -1.00188 65.4583 0.447316C70.0834 1.94902 70.6725 11.4529 74.5219 14.2491C78.4113 17.08 87.6226 14.7226 90.4534 18.6105C93.2552 22.4613 88.1857 30.4802 89.6889 35.105C91.1378 39.5668 100 43.0518 100 47.9986Z" fill="#3679E0"/>
    <path transform="translate(27 32)" d="M18.6331 32.9984C17.1689 33.0004 15.7641 32.4188 14.7298 31.3822L2.42136 19.0737C0.265024 16.9179 0.264448 13.4223 2.41992 11.266C4.57567 9.10968 8.07127 9.1091 10.2276 11.2646L18.6328 19.6686L35.7816 2.52124C37.9377 0.364906 41.4336 0.364617 43.5899 2.52066C45.7462 4.67671 45.7465 8.1726 43.5905 10.3289L22.5372 31.3822C21.5029 32.4191 20.0976 33.0007 18.6331 32.9984Z" fill="white"/>
</svg>